#!OML:ASF F:\VICON\USERDATA\INSTALL\rory3\rory3.ASF
:FULLY-SPECIFIED
:DEGREES
851
root 2.41045 10.7509 -3.80645 17.7616 -2.80681 -0.403216
lowerback 45.3512 -0.687551 1.74424
upperback 10.988 0.0133462 0.9865
thorax -8.63175 -0.0429713 0.169003
lowerneck -16.2834 -1.73535 -9.61901
upperneck 20.4523 -0.183723 1.42732
head 9.16331 -0.669372 2.05961
rclavicle 9.74045e-015 -1.12313e-014
rhumerus -39.3727 26.9744 -75.7147
rradius 126.228
rwrist 48.909
rhand -62.191 -0.783212
rfingers 7.12502
rthumb -34.2351 -27.5145
lclavicle 9.74045e-015 -1.12313e-014
lhumerus -37.305 -31.7524 80.8419
lradius 122.225
lwrist -35.7268
lhand -52.6189 42.4127
lfingers 7.12502
lthumb -25.1007 70.7829
rfemur -107.313 -11.8316 32.5866
rtibia 105.541
rfoot -17.9226 5.03248
rtoes -10.1851
lfemur -107.055 8.20341 -27.8502
ltibia 101.652
lfoot -17.4829 -12.5919
ltoes -17.5693
852
root 2.40271 10.7979 -3.7375 18.4011 -2.79617 -0.423471
lowerback 45.3852 -0.664989 1.67093
upperback 11.0671 0.0191249 1.07966
thorax -8.55184 -0.0433489 0.304007
lowerneck -16.2216 -1.46642 -9.23662
upperneck 20.142 0.119907 1.20991
head 9.02461 -0.514102 1.95659
rclavicle 2.78299e-015 -8.24956e-015
rhumerus -39.6854 27.3783 -75.661
rradius 126.249
rwrist 48.598
rhand -62.9348 -0.80008
rfingers 7.12502
rthumb -34.9411 -27.3699
lclavicle 2.78299e-015 -8.24956e-015
lhumerus -37.8154 -32.0967 80.751
lradius 122.392
lwrist -36.0237
lhand -53.2509 43.8533
lfingers 7.12502
lthumb -25.7061 72.1374
rfemur -107.478 -11.6657 32.6479
rtibia 105.441
rfoot -18.1366 4.81498
rtoes -11.5144
lfemur -107.248 8.1049 -27.7796
ltibia 101.464
lfoot -17.7215 -12.7869
ltoes -17.6746
853
root 2.39507 10.8437 -3.66977 18.9659 -2.83706 -0.348649
lowerback 45.6003 -0.569453 1.40335
upperback 11.0994 0.0432263 1.25916
thorax -8.57415 -0.0395668 0.623972
lowerneck -16.3544 -1.27629 -9.15687
upperneck 20.0878 0.425208 0.974324
head 9.01479 -0.39075 1.89956
rclavicle -3.97569e-016 -1.26228e-014
rhumerus -39.8184 27.9075 -75.2553
rradius 126.295
rwrist 48.708
rhand -63.4487 -1.34971
rfingers 7.12502
rthumb -35.4284 -27.8046
lclavicle -3.97569e-016 -1.26228e-014
lhumerus -38.2916 -32.3436 80.7786
lradius 122.525
lwrist -36.1977
lhand -54.6747 44.9874
lfingers 7.12502
lthumb -27.0689 73.0671
rfemur -107.574 -11.487 32.5464
rtibia 105.311
rfoot -18.2307 4.63924
rtoes -12.096
lfemur -107.37 8.04256 -27.7961
ltibia 101.301
lfoot -17.9572 -12.9245
ltoes -17.4621
854
root 2.39256 10.8865 -3.6026 19.4817 -2.78096 -0.225744
lowerback 45.9583 -0.593263 1.35662
upperback 11.0359 0.0247848 1.40477
thorax -8.73903 -0.0528949 0.814719
lowerneck -16.6368 -1.238 -9.47632
upperneck 20.1862 0.557095 1.13979
head 9.09282 -0.339631 2.02657
rclavicle 1.39149e-015 -1.31198e-014
rhumerus -39.9862 28.5309 -74.7932
rradius 126.277
rwrist 48.8409
rhand -63.7928 -0.853649
rfingers 7.12502
rthumb -35.7546 -27.2301
lclavicle 1.39149e-015 -1.31198e-014
lhumerus -38.7181 -32.5434 81.0868
lradius 122.689
lwrist -36.1887
lhand -53.7527 45.763
lfingers 7.12502
lthumb -26.1865 73.9767
rfemur -107.696 -11.4463 32.3646
rtibia 105.201
rfoot -18.3545 4.49738
rtoes -12.3292
lfemur -107.404 7.81661 -27.776
ltibia 101.177
lfoot -18.2977 -12.8022
ltoes -17.7245
855
root 2.39371 10.9362 -3.53817 19.9169 -2.74513 -0.0695321
lowerback 46.3048 -0.668256 1.43348
upperback 10.905 -0.0124305 1.43876
thorax -8.97473 -0.0706139 0.831274
lowerneck -16.7486 -1.2208 -9.83078
upperneck 20.3365 0.582528 1.60842
head 9.15958 -0.308824 2.25185
rclavicle -5.96354e-015 1.86858e-014
rhumerus -40.2626 29.1234 -74.5582
rradius 126.201
rwrist 49.0058
rhand -64.0214 -0.819447
rfingers 7.12502
rthumb -35.9712 -27.143
lclavicle -5.96354e-015 1.86858e-014
lhumerus -39.2971 -33.1184 81.5152
lradius 122.86
lwrist -35.5159
lhand -54.6487 45.5865
lfingers 7.12502
lthumb -27.0441 73.6701
rfemur -107.734 -11.4876 32.0371
rtibia 105.132
rfoot -18.4976 4.63897
rtoes -11.2511
lfemur -107.29 7.54953 -27.7722
ltibia 101.048
lfoot -18.7373 -12.4434
ltoes -18.4671
856
root 2.39159 10.9888 -3.47914 20.179 -2.73991 -0.0080089
lowerback 46.8088 -0.753368 1.55518
upperback 10.687 -0.0533043 1.34668
thorax -9.34726 -0.0874506 0.692651
lowerneck -16.413 -1.10803 -9.74667
upperneck 20.4172 0.626609 1.82458
head 9.11972 -0.260925 2.31835
rclavicle 5.96354e-016 1.91827e-014
rhumerus -40.7943 29.578 -74.7895
rradius 126.304
rwrist 49.3976
rhand -64.0034 -0.777467
rfingers 7.12502
rthumb -35.9542 -27.1052
lclavicle 5.96354e-016 1.91827e-014
lhumerus -39.9393 -33.9427 81.5926
lradius 122.967
lwrist -34.9922
lhand -55.8264 46.814
lfingers 7.12502
lthumb -28.1703 74.7175
rfemur -107.513 -11.4799 31.7308
rtibia 105.051
rfoot -18.6898 4.93532
rtoes -9.40503
lfemur -106.983 7.40376 -27.6366
ltibia 100.898
lfoot -19.1293 -12.17
ltoes -19.2031
857
root 2.38887 11.0393 -3.4214 20.425 -2.71526 -0.0187688
lowerback 46.9822 -0.872176 1.76931
upperback 10.6361 -0.113413 1.18374
thorax -9.44554 -0.11029 0.436083
lowerneck -15.5094 -0.931811 -9.30562
upperneck 19.9417 0.681344 1.65958
head 8.78689 -0.204841 2.18604
rclavicle 5.96354e-016 1.88845e-014
rhumerus -41.2212 30.0086 -75.1525
rradius 126.445
rwrist 49.9637
rhand -63.9045 -0.250211
rfingers 7.12502
rthumb -35.8604 -26.6009
lclavicle 5.96354e-016 1.88845e-014
lhumerus -40.2016 -34.7737 81.2874
lradius 122.999
lwrist -34.8925
lhand -54.7029 45.8249
lfingers 7.12502
lthumb -27.096 73.9004
rfemur -107.21 -11.3606 31.4525
rtibia 104.918
rfoot -18.9179 5.01159
rtoes -8.32576
lfemur -106.72 7.2911 -27.4359
ltibia 100.728
lfoot -19.3305 -12.0538
ltoes -19.2946
858
root 2.38592 11.0939 -3.36372 20.7233 -2.71179 0.120885
lowerback 46.7024 -0.969694 1.94738
upperback 10.8501 -0.181081 1.02253
thorax -9.13053 -0.132782 0.198348
lowerneck -14.7137 -0.801669 -8.93957
upperneck 19.105 0.716282 1.4431
head 8.35665 -0.158667 2.04323
rclavicle 1.05356e-014 5.96354e-016
rhumerus -41.0465 30.382 -75.1917
rradius 126.42
rwrist 50.0559
rhand -64.0132 1.02651
rfingers 7.12502
rthumb -35.9634 -25.299
lclavicle 1.05356e-014 5.96354e-016
lhumerus -39.8835 -35.7742 80.8608
lradius 122.831
lwrist -34.215
lhand -56.7966 45.9944
lfingers 7.12502
lthumb -29.0972 73.7414
rfemur -106.957 -11.2722 31.0273
rtibia 104.77
rfoot -19.0962 4.98368
rtoes -7.27497
lfemur -106.47 7.09599 -27.3744
ltibia 100.507
lfoot -19.4668 -11.9385
ltoes -19.1335
859
root 2.38022 11.1423 -3.29971 21.0843 -2.69544 0.279105
lowerback 46.4175 -1.02788 2.054
upperback 11.0795 -0.215464 1.00807
thorax -8.7975 -0.144041 0.140409
lowerneck -14.6398 -0.745994 -8.98703
upperneck 18.5852 0.807691 1.33805
head 8.16435 -0.11415 2.01944
rclavicle 1.11319e-014 -6.36111e-015
rhumerus -40.3953 30.9505 -74.8888
rradius 126.227
rwrist 49.5045
rhand -64.3375 2.34767
rfingers 7.12502
rthumb -36.2706 -23.9019
lclavicle 1.11319e-014 -6.36111e-015
lhumerus -38.9255 -36.3094 80.1529
lradius 122.634
lwrist -34.6114
lhand -55.3783 47.1404
lfingers 7.12502
lthumb -27.742 75.1136
rfemur -106.886 -11.2432 30.7864
rtibia 104.657
rfoot -19.2447 4.80961
rtoes -7.05799
lfemur -106.315 6.87737 -27.2911
ltibia 100.33
lfoot -19.6448 -11.8677
ltoes -19.2708
860
root 2.3745 11.1884 -3.2327 21.4693 -2.712 0.429617
lowerback 46.2734 -1.02905 2.05342
upperback 11.2036 -0.212756 1.08548
thorax -8.62023 -0.143251 0.221083
lowerneck -15.119 -0.744938 -9.29733
upperneck 18.7077 0.919826 1.41845
head 8.28507 -0.0793418 2.11298
rclavicle -2.38542e-015 7.55382e-015
rhumerus -39.6372 31.6566 -74.563
rradius 125.811
rwrist 48.7997
rhand -64.5615 3.84965
rfingers 7.12502
rthumb -36.4827 -22.3468
lclavicle -2.38542e-015 7.55382e-015
lhumerus -37.9969 -36.9888 79.717
lradius 122.183
lwrist -34.5289
lhand -55.0376 47.085
lfingers 7.12502
lthumb -27.4161 75.1103
rfemur -106.866 -11.1977 30.5629
rtibia 104.54
rfoot -19.3764 4.65047
rtoes -6.77079
lfemur -106.184 6.71216 -27.2513
ltibia 100.161
lfoot -19.8445 -11.735
ltoes -19.3964
861
root 2.36804 11.2425 -3.16568 21.8771 -2.79088 0.630278
lowerback 46.1248 -0.965496 1.92379
upperback 11.2142 -0.191161 1.14049
thorax -8.57188 -0.134613 0.335371
lowerneck -15.2538 -0.701266 -9.31761
upperneck 18.7629 1.03444 1.25595
head 8.32382 -0.0454608 2.07556
rclavicle -5.56597e-015 1.89839e-014
rhumerus -39.1073 32.281 -74.4363
rradius 125.422
rwrist 48.3674
rhand -64.398 3.87614
rfingers 7.12502
rthumb -36.3279 -22.3591
lclavicle -5.56597e-015 1.89839e-014
lhumerus -37.252 -37.6669 79.3883
lradius 121.835
lwrist -34.223
lhand -54.669 46.4397
lfingers 7.12502
lthumb -27.0635 74.5203
rfemur -106.745 -11.0769 30.3464
rtibia 104.318
rfoot -19.6339 4.12331
rtoes -8.48954
lfemur -105.994 6.54188 -27.2391
ltibia 99.9524
lfoot -20.0893 -11.5479
ltoes -19.5844
862
root 2.3602 11.3027 -3.09821 22.2665 -2.7964 0.885987
lowerback 45.9343 -0.98591 1.82944
upperback 11.146 -0.267929 1.05192
thorax -8.60233 -0.164903 0.319905
lowerneck -15.1182 -0.57298 -9.00044
upperneck 18.8004 1.16197 1.04875
head 8.30744 0.0144667 1.96812
rclavicle -1.23246e-014 1.02374e-014
rhumerus -38.6939 32.7066 -74.5947
rradius 125.13
rwrist 48.1129
rhand -63.9907 3.44851
rfingers 7.12502
rthumb -35.9421 -22.8822
lclavicle -1.23246e-014 1.02374e-014
lhumerus -36.6034 -38.368 78.9251
lradius 121.643
lwrist -33.8039
lhand -54.4062 45.6937
lfingers 7.12502
lthumb -26.812 73.8131
rfemur -106.524 -11.0327 30.2297
rtibia 104.036
rfoot -20.0735 3.19804
rtoes -12.4439
lfemur -105.743 6.28115 -27.2409
ltibia 99.6982
lfoot -20.2632 -11.3967
ltoes -19.4335
863
root 2.3517 11.369 -3.03342 22.6013 -2.81651 0.97737
lowerback 45.8599 -1.00217 1.83729
upperback 11.0586 -0.28911 1.00332
thorax -8.6829 -0.172761 0.272627
lowerneck -15.2658 -0.523412 -8.87788
upperneck 19.0329 1.22386 1.03364
head 8.40938 0.0428309 1.95352
rclavicle 5.1684e-015 -1.49089e-014
rhumerus -38.0777 33.0153 -74.5561
rradius 124.862
rwrist 47.6581
rhand -63.4526 2.52031
rfingers 7.12502
rthumb -35.4322 -23.9337
lclavicle 5.1684e-015 -1.49089e-014
lhumerus -35.8626 -39.0658 78.4949
lradius 121.369
lwrist -33.3001
lhand -54.2912 45.5208
lfingers 7.12502
lthumb -26.7021 73.657
rfemur -106.203 -10.9216 30.1528
rtibia 103.72
rfoot -20.3121 2.61567
rtoes -14.6031
lfemur -105.423 6.16392 -27.1076
ltibia 99.3885
lfoot -20.4053 -11.4171
ltoes -18.9577
864
root 2.34246 11.4362 -2.97256 22.9383 -3.02956 1.01009
lowerback 45.6907 -0.883125 1.72865
upperback 11.0708 -0.20473 0.99932
thorax -8.62637 -0.135552 0.28581
lowerneck -15.571 -0.554668 -9.02316
upperneck 19.2062 1.23253 1.1316
head 8.52147 0.0404911 2.01508
rclavicle 7.95139e-016 2.34566e-014
rhumerus -37.2368 33.2619 -74.305
rradius 124.561
rwrist 47.1125
rhand -62.9672 1.53016
rfingers 7.12502
rthumb -34.9718 -25.0325
lclavicle 7.95139e-016 2.34566e-014
lhumerus -34.8476 -39.9247 78.1072
lradius 120.86
lwrist -32.1512
lhand -54.5033 45.5225
lfingers 7.12502
lthumb -26.905 73.6276
rfemur -105.862 -10.6073 29.8992
rtibia 103.372
rfoot -20.4449 2.4187
rtoes -14.6181
lfemur -105.143 6.24928 -27.0115
ltibia 99.0659
lfoot -20.5896 -11.4378
ltoes -18.3431
